<svg width="24" height="25" viewBox="0 0 24 25" fill="none" xmlns="http://www.w3.org/2000/svg">
<g clip-path="url(#clip0_61_175)">
<path fill-rule="evenodd" clip-rule="evenodd" d="M14.112 4.24404L21.556 8.00504C21.8706 8.16508 22.1191 8.43027 22.2585 8.75454C22.3979 9.0788 22.4193 9.44164 22.319 9.78004C21.929 11.111 21.972 11.67 22.227 12.301C22.484 12.939 22.306 13.75 21.64 14.171L11.356 20.681C10.925 20.954 10.376 20.996 9.89898 20.763L6.05898 18.868L4.45498 18.063L3.31498 17.481L2.61898 17.116L2.25898 16.92L1.99798 16.77C0.977977 16.155 0.659977 14.905 0.665977 13.95C0.669977 12.979 1.00398 11.766 1.93098 11.1L2.23098 10.893L3.08898 10.332L5.13398 9.02604L12.642 4.31104C12.8607 4.17458 13.1108 4.09681 13.3683 4.08525C13.6258 4.07369 13.882 4.12772 14.112 4.24404ZM20.033 11.188L11.36 16.678L11.252 16.741L11.141 16.793C11.031 17.201 10.993 17.494 10.997 17.766C10.999 17.928 11.017 18.094 11.052 18.283L11.094 18.48L20.242 12.69L20.17 12.441C20.0849 12.1156 20.0386 11.7813 20.032 11.445L20.033 11.188ZM2.79998 13.178C2.7097 13.4281 2.66433 13.6922 2.66598 13.958C2.66298 14.63 2.90298 14.981 3.03098 15.058L3.33898 15.233L3.96498 15.566L5.73498 16.469L9.00998 18.1C9.00197 17.9992 8.9973 17.8982 8.99598 17.797C8.9923 17.4229 9.03054 17.0496 9.10998 16.684L9.17698 16.396L2.79998 13.178ZM13.964 7.41404C13.7379 7.29478 13.4747 7.26665 13.2285 7.33541C12.9823 7.40417 12.7717 7.56461 12.6401 7.78376C12.5086 8.00291 12.4659 8.26414 12.5209 8.51378C12.5759 8.76341 12.7244 8.9825 12.936 9.12604L13.036 9.18604L15.136 10.286C15.3621 10.4053 15.6253 10.4334 15.8715 10.3647C16.1177 10.2959 16.3282 10.1355 16.4598 9.91631C16.5914 9.69716 16.6341 9.43593 16.5791 9.18629C16.524 8.93666 16.3755 8.71757 16.164 8.57404L16.064 8.51404L13.964 7.41404Z" fill="white"/>
</g>
<defs>
<clipPath id="clip0_61_175">
<rect width="24" height="24" fill="white" transform="translate(0 0.5)"/>
</clipPath>
</defs>
</svg>
