<svg width="44" height="44" viewBox="0 0 44 44" fill="none" xmlns="http://www.w3.org/2000/svg">
<g clip-path="url(#clip0_61_149)">
<path d="M24.156 6.29558C24.2913 6.09453 24.465 5.92229 24.6673 5.78881C24.8695 5.65534 25.0962 5.56328 25.3342 5.51795C25.5723 5.47263 25.8169 5.47494 26.0541 5.52476C26.2912 5.57458 26.5161 5.67091 26.7158 5.80819C26.9155 5.94546 27.0859 6.12096 27.2174 6.32453C27.3488 6.52811 27.4386 6.75571 27.4815 6.9942C27.5244 7.23268 27.5196 7.4773 27.4674 7.71392C27.4152 7.95054 27.3166 8.17447 27.1773 8.37275L24.2257 12.6664L39.4643 34.8333H40.3333C40.8196 34.8333 41.2859 35.0264 41.6297 35.3702C41.9735 35.714 42.1667 36.1804 42.1667 36.6666C42.1667 37.1528 41.9735 37.6191 41.6297 37.9629C41.2859 38.3068 40.8196 38.4999 40.3333 38.4999H31.8377L31.757 38.3716L23.5217 26.4788C23.3512 26.2329 23.1238 26.0321 22.8588 25.8934C22.5938 25.7546 22.2991 25.6822 22 25.6822C21.7009 25.6822 21.4062 25.7546 21.1412 25.8934C20.8762 26.0321 20.6488 26.2329 20.4783 26.4788L12.243 38.3716L12.1623 38.4999H3.66668C3.18045 38.4999 2.71413 38.3068 2.37031 37.9629C2.0265 37.6191 1.83334 37.1528 1.83334 36.6666C1.83334 36.1804 2.0265 35.714 2.37031 35.3702C2.71413 35.0264 3.18045 34.8333 3.66668 34.8333H4.53568L19.7762 12.6646L16.8227 8.37092C16.5531 7.97014 16.4525 7.47916 16.5428 7.00466C16.6332 6.53015 16.9071 6.11048 17.3052 5.83683C17.7032 5.56318 18.1932 5.45767 18.6686 5.54323C19.1439 5.62879 19.5664 5.8985 19.844 6.29375L22 9.43059L24.156 6.29558ZM22 30.7211L27.3863 38.4999H16.6137L22 30.7211Z" fill="#BF8F00"/>
</g>
<defs>
<clipPath id="clip0_61_149">
<rect width="44" height="44" fill="white"/>
</clipPath>
</defs>
</svg>
