<svg width="24" height="25" viewBox="0 0 24 25" fill="none" xmlns="http://www.w3.org/2000/svg">
<g clip-path="url(#clip0_61_160)">
<path d="M16.5 11.5C17.4556 11.4999 18.3947 11.7488 19.2248 12.2221C20.0549 12.6955 20.7473 13.3769 21.2339 14.1993C21.7205 15.0217 21.9844 15.9567 21.9997 16.9121C22.015 17.8675 21.7811 18.8105 21.321 19.648L21.707 20.959C21.758 21.1323 21.7614 21.3161 21.7168 21.4911C21.6722 21.6661 21.5813 21.8259 21.4536 21.9536C21.3259 22.0813 21.1661 22.1722 20.9911 22.2168C20.8161 22.2614 20.6322 22.258 20.459 22.207L19.149 21.821C18.4139 22.2246 17.5963 22.4548 16.7587 22.494C15.921 22.5332 15.0855 22.3803 14.316 22.047C13.5464 21.7137 12.8633 21.2089 12.3188 20.5712C11.7743 19.9334 11.3829 19.1796 11.1744 18.3673C10.9659 17.5551 10.946 16.7059 11.116 15.8847C11.286 15.0636 11.6416 14.2922 12.1555 13.6295C12.6694 12.9668 13.328 12.4305 14.081 12.0614C14.834 11.6923 15.6614 11.5003 16.5 11.5ZM11 3.5C12.9899 3.50027 14.9237 4.15974 16.4992 5.37535C18.0746 6.59096 19.203 8.29422 19.708 10.219C18.1945 9.50161 16.4844 9.31149 14.8503 9.67894C13.2162 10.0464 11.7521 10.9502 10.6914 12.2465C9.63064 13.5427 9.03433 15.1567 8.99747 16.8312C8.96061 18.5057 9.48533 20.1444 10.488 21.486C9.04088 21.4055 7.63495 20.9748 6.39099 20.231L3.74099 21.011C3.56718 21.0623 3.38275 21.0657 3.20713 21.021C3.03151 20.9763 2.87119 20.8851 2.74305 20.7569C2.6149 20.6288 2.52368 20.4685 2.47897 20.2929C2.43426 20.1172 2.43772 19.9328 2.48899 19.759L3.26899 17.109C2.45443 15.7428 2.01648 14.1851 1.99976 12.5946C1.98305 11.0041 2.38815 9.43754 3.17382 8.05452C3.95948 6.67149 5.09765 5.52139 6.4724 4.72134C7.84716 3.92129 9.40939 3.49987 11 3.5Z" fill="white"/>
</g>
<defs>
<clipPath id="clip0_61_160">
<rect width="24" height="24" fill="white" transform="translate(0 0.5)"/>
</clipPath>
</defs>
</svg>
