<svg width="18" height="19" viewBox="0 0 18 19" fill="none" xmlns="http://www.w3.org/2000/svg">
<g clip-path="url(#clip0_30_102)">
<path d="M2.28753 7.4825C2.25565 7.38729 2.24321 7.28665 2.25095 7.18654C2.25869 7.08643 2.28645 6.9889 2.33259 6.89972C2.37873 6.81055 2.4423 6.73154 2.51954 6.66739C2.59678 6.60324 2.68611 6.55525 2.78224 6.52627C2.87838 6.49729 2.97935 6.48791 3.07917 6.49868C3.179 6.50945 3.27565 6.54016 3.36338 6.58898C3.45112 6.6378 3.52816 6.70373 3.58994 6.78288C3.65172 6.86203 3.69698 6.95278 3.72303 7.04974C5.28753 12.2892 12.7095 12.29 14.2755 7.05275C14.3036 6.95829 14.35 6.87029 14.4121 6.79377C14.4742 6.71725 14.5507 6.6537 14.6373 6.60676C14.724 6.55982 14.819 6.53041 14.917 6.5202C15.015 6.50998 15.1141 6.51917 15.2085 6.54724C15.303 6.57531 15.391 6.62171 15.4675 6.68379C15.544 6.74587 15.6076 6.82242 15.6545 6.90905C15.7015 6.99569 15.7309 7.09072 15.7411 7.18873C15.7513 7.28673 15.7421 7.38579 15.714 7.48025C15.4412 8.41864 14.9783 9.29093 14.3543 10.043L15.3105 11C15.4471 11.1414 15.5227 11.3309 15.521 11.5275C15.5193 11.7242 15.4405 11.9123 15.3014 12.0514C15.1623 12.1904 14.9742 12.2693 14.7776 12.271C14.5809 12.2727 14.3915 12.1971 14.25 12.0605L13.2668 11.0772C12.7361 11.4774 12.15 11.798 11.5268 12.029L11.7945 13.0302C11.8231 13.1263 11.8321 13.2271 11.8211 13.3267C11.8101 13.4262 11.7792 13.5226 11.7303 13.6101C11.6814 13.6975 11.6155 13.7743 11.5364 13.8358C11.4573 13.8974 11.3667 13.9425 11.27 13.9684C11.1732 13.9944 11.0722 14.0007 10.973 13.987C10.8737 13.9733 10.7782 13.9398 10.6921 13.8886C10.606 13.8373 10.531 13.7693 10.4716 13.6887C10.4122 13.608 10.3696 13.5162 10.3463 13.4187L10.0733 12.401C9.36303 12.506 8.63703 12.506 7.92678 12.401L7.65378 13.4187C7.63044 13.5162 7.58782 13.608 7.52842 13.6887C7.46902 13.7693 7.39406 13.8373 7.30796 13.8886C7.22186 13.9398 7.12636 13.9733 7.02711 13.987C6.92786 14.0007 6.82686 13.9944 6.73009 13.9684C6.63331 13.9425 6.54272 13.8974 6.46366 13.8358C6.3846 13.7743 6.31868 13.6975 6.26978 13.6101C6.22089 13.5226 6.19001 13.4262 6.17897 13.3267C6.16794 13.2271 6.17697 13.1263 6.20553 13.0302L6.47328 12.029C5.85007 11.7977 5.2639 11.4769 4.73328 11.0765L3.75078 12.0605C3.61015 12.2013 3.41933 12.2805 3.22031 12.2807C3.02129 12.2808 2.83036 12.2019 2.68953 12.0612C2.5487 11.9206 2.4695 11.7298 2.46936 11.5308C2.46922 11.3318 2.54815 11.1408 2.68878 11L3.64503 10.0437C3.05703 9.34175 2.58753 8.48824 2.28603 7.48324L2.28753 7.4825Z" fill="#09244B"/>
</g>
<defs>
<clipPath id="clip0_30_102">
<rect width="18" height="18" fill="white" transform="translate(0 0.5)"/>
</clipPath>
</defs>
</svg>
