<svg width="20" height="21" viewBox="0 0 20 21" fill="none" xmlns="http://www.w3.org/2000/svg">
<path d="M18.1713 8.86788H17.5V8.83329H10V12.1666H14.7096C14.0225 14.107 12.1763 15.5 10 15.5C7.23877 15.5 5.00002 13.2612 5.00002 10.5C5.00002 7.73871 7.23877 5.49996 10 5.49996C11.2746 5.49996 12.4342 5.98079 13.3171 6.76621L15.6742 4.40913C14.1859 3.02204 12.195 2.16663 10 2.16663C5.39794 2.16663 1.66669 5.89788 1.66669 10.5C1.66669 15.102 5.39794 18.8333 10 18.8333C14.6021 18.8333 18.3334 15.102 18.3334 10.5C18.3334 9.94121 18.2759 9.39579 18.1713 8.86788Z" fill="#FFC107"/>
<path d="M2.62744 6.62121L5.36536 8.62913C6.10619 6.79496 7.90036 5.49996 9.99994 5.49996C11.2745 5.49996 12.4341 5.98079 13.317 6.76621L15.6741 4.40913C14.1858 3.02204 12.1949 2.16663 9.99994 2.16663C6.79911 2.16663 4.02327 3.97371 2.62744 6.62121Z" fill="#FF3D00"/>
<path d="M10 18.8336C12.1525 18.8336 14.1084 18.0099 15.5871 16.6703L13.008 14.4878C12.1433 15.1457 11.0865 15.5015 10 15.5003C7.83255 15.5003 5.99213 14.1182 5.2988 12.1895L2.5813 14.2832C3.96047 16.982 6.7613 18.8336 10 18.8336Z" fill="#4CAF50"/>
<path d="M18.1712 8.86796H17.5V8.83337H10V12.1667H14.7096C14.3809 13.0902 13.7889 13.8972 13.0067 14.488L13.0079 14.4871L15.5871 16.6696C15.4046 16.8355 18.3333 14.6667 18.3333 10.5C18.3333 9.94129 18.2758 9.39587 18.1712 8.86796Z" fill="#1976D2"/>
</svg>
